<svg xmlns="http://www.w3.org/2000/svg" xmlns:xlink="http://www.w3.org/1999/xlink" width="313.5" height="136.1" viewBox="0 0 313.5 136.1">
  <defs>
    <clipPath id="clip-path">
      <path d="M193.9,50c-18.2-36.7-27.8-35.3-27.8-35.3s-24.1-.8-31.7-.1-10.2,5.5-10.2,5.5l-7.6,11.7s-5.1,6.9,7.6,8.3C134.4,41.3,193.9,50,193.9,50Z" style="fill: none"/>
    </clipPath>
    <clipPath id="clip-path-2">
      <path d="M198.9,14.5l10.3,13.3,12.6,11.3L209.1,50.8,188.3,21.7s-3.8-4.2,0-6.2Z" style="fill: none"/>
    </clipPath>
  </defs>
  <g id="Layer_2" data-name="Layer 2">
    <g id="Layer_1-2" data-name="Layer 1">
      <g>
        <g id="Layer_2-2" data-name="Layer 2">
          <g id="Layer_1-2-2" data-name="Layer 1-2">
            <g id="Basic_White" data-name="Basic White">
              <g id="Layer_2-2-2" data-name="Layer 2-2">
                <g id="Premium">
                  <g id="premium-water">
                    <path d="M221.2,39.1h34.9c27.3.1,49.3,15.6,49.2,45.4v19.3a6.9,6.9,0,0,1,0,13.8l-225-.7L8,104.2A6.6,6.6,0,0,1,8,91.1V48.3c0-8.6,6.4-15.5,14.3-15.5h2.2c32.9.1,56.1-8.1,84.9-23.9l6.2-3.4a32.7,32.7,0,0,1,11.4-3.4c6.4-.7,50.7,1.6,50.7,1.6s13.9-2,21.5,11.1,22.7,25,22.7,25" style="fill: #e1fbff"/>
                    <path d="M305.2,104a6.9,6.9,0,0,1,0,13.8l-225-.8L8,104.2A6.6,6.6,0,0,1,8,91.1L7.8,60,21,73.9l-.7,17.3v4.1l58,9.9Z" style="fill: #474757"/>
                    <g style="opacity: 0.12999999523162842">
                      <path d="M305.3,88.1s-18.2-45.3-84.8-25.5L7.9,48.3c0-8.6,6.4-15.5,14.3-15.5l43.2.2c8.9,0,141.9,18.5,141.9,18.5l14-12.4h34.9C256.1,39.2,305.3,37.5,305.3,88.1Z"/>
                    </g>
                    <ellipse cx="258.7" cy="100.6" rx="33.7" ry="33.5" transform="translate(-8.4 25.1) rotate(-5.5)" style="fill: #32323f"/>
                    <ellipse cx="258.7" cy="100.6" rx="32.8" ry="32.6" transform="translate(-8.4 25.1) rotate(-5.5)" style="fill: #474757"/>
                    <ellipse cx="258.7" cy="100.6" rx="24.7" ry="24.5" transform="translate(-8.4 25.1) rotate(-5.5)"/>
                    <ellipse cx="258.7" cy="100.6" rx="23.5" ry="23.3" transform="matrix(1, -0.1, 0.1, 1, -8.41, 25.11)" style="fill: #fff"/>
                    <ellipse cx="258.7" cy="100.6" rx="22.3" ry="22.1" transform="translate(-8.4 25.1) rotate(-5.5)" style="fill: #ddd"/>
                    <circle cx="258.7" cy="100.6" r="13.8" transform="translate(141.4 352.2) rotate(-86.2)" style="fill: #bac0d8"/>
                    <circle cx="258.7" cy="100.6" r="12.6" transform="translate(-8.4 25.1) rotate(-5.5)" style="fill: #acafbc"/>
                    <g style="clip-path: url(#clip-path)">
                      <path d="M192.8,13.4H111.6V50h82.3V13.4Z" style="fill: #aafff9"/>
                    </g>
                    <g style="clip-path: url(#clip-path-2)">
                      <path d="M221,14.8H184.5v36h37.3v-36Z" style="fill: #abfef9"/>
                    </g>
                  </g>
                </g>
              </g>
              <ellipse cx="67.8" cy="100.6" rx="33.7" ry="33.5" transform="translate(-9.3 6.9) rotate(-5.5)" style="fill: #32323f"/>
              <ellipse cx="67.8" cy="100.6" rx="32.8" ry="32.6" transform="translate(-9.3 6.9) rotate(-5.5)" style="fill: #474757"/>
              <ellipse cx="67.8" cy="100.6" rx="24.7" ry="24.5" transform="translate(-9.3 6.9) rotate(-5.5)"/>
              <ellipse cx="67.8" cy="100.6" rx="23.5" ry="23.3" transform="translate(-9.3 6.9) rotate(-5.5)" style="fill: #fff"/>
              <ellipse cx="67.8" cy="100.6" rx="22.3" ry="22.1" transform="translate(-9.3 6.9) rotate(-5.5)" style="fill: #ddd"/>
              <circle cx="67.8" cy="100.6" r="13.8" style="fill: #bac0d8"/>
              <circle cx="67.8" cy="100.6" r="12.6" style="fill: #acafbc"/>
            </g>
          </g>
        </g>
        <path d="M131.3,2c13,0,46.3,1.7,46.3,1.7h2a22,22,0,0,1,19.5,11.2l1.9,2.9a78.3,78.3,0,0,0,5.7,7.2l2.1,2.4a55.2,55.2,0,0,0,6.5,6.3l6.5,5.5h35l3.7.2c25.2,1.7,44.9,17.1,44.8,45.2v3.5h0v15.8a6.9,6.9,0,0,1,6.3,6.9v.7a6.9,6.9,0,0,1-6.3,6.3H287.7A34,34,0,0,1,261.9,134h-3.2a33.8,33.8,0,0,1-29.1-16.5l-132.4-.5A33.9,33.9,0,0,1,71,134H67.8a33.7,33.7,0,0,1-32.6-25L8,104.2A6.6,6.6,0,0,1,8,91.1L7.8,60V48.3c0-8.6,6.4-15.5,14.3-15.5H25c32.6,0,55.7-8.2,84.3-23.9l6.2-3.4a32.7,32.7,0,0,1,11.4-3.4h4.4m0-2V0h-4.6a37.2,37.2,0,0,0-12.1,3.6h0l-6.2,3.4C81.7,21.8,58.5,30.8,25,30.8H22.2c-9,0-16.3,7.9-16.3,17.5v6.8H5.8v5L6,89.5a8.8,8.8,0,0,0-6,7.4,8.6,8.6,0,0,0,7.8,9.3l25.8,4.6a35.6,35.6,0,0,0,34.2,25.3h3.4a36.1,36.1,0,0,0,27.1-16.9l130.2.5a36,36,0,0,0,30.2,16.5h3.4a36.2,36.2,0,0,0,26.7-16.2h16.6a9,9,0,0,0,8.1-8.1v-1a8.9,8.9,0,0,0-6.3-8.4V98h0V84.6c.1-13.8-4.6-25.6-13.5-34s-19.7-12.3-33.1-13.2a35.8,35.8,0,0,0-3.9-.2H222.6l-6-5a52,52,0,0,1-6.3-6.1l-2.1-2.4a64,64,0,0,1-5.5-7.1l-1.9-2.7A24.1,24.1,0,0,0,179.6,1.6h-2C174.9,1.6,143.7,0,131.3,0Z" style="fill: #191919"/>
      </g>
    </g>
  </g>
</svg>
